<svg xmlns="http://www.w3.org/2000/svg" width="2002pt" height="675pt" version="1.0" viewBox="0 0 2002 675"><path fill="#000000" stroke="#000000" d="M476.5 45.793c-2.2.879-7.96 4.183-12.8 7.341s-10.421 6.279-12.403 6.933c-6.207 2.049-20.13.595-37.297-3.894-18.334-4.795-39.967-8.16-52.5-8.167-10.263-.006-30.527 3.047-40.947 6.17-18.691 5.601-36.71 16.107-49.784 29.026-17.352 17.147-27.57 36.369-34.445 64.798-2.515 10.395-2.43 41.178.137 50.319 8.047 28.649 16.296 43.52 32.996 59.486 22.842 21.836 51.537 32.41 88.543 32.626 18.453.107 32.872-2.735 60.481-11.922 22.58-7.514 23.988-7.839 28.092-6.485 1.893.625 3.854 1.906 4.358 2.847 1.436 2.683 3.062 23.231 3.066 38.739.005 21.321-2.392 41.964-6.945 59.809-4.489 17.595-5.71 20.849-9.52 25.367-3.515 4.169-6.947 5.935-13.129 6.755-7.331.972-15.141-.89-29.751-7.095-27.265-11.58-49.141-18.223-83.652-25.401-33.552-6.979-81.085-10.245-119.305-8.199-54.11 2.898-91.142 12.013-126.695 31.184-13.764 7.422-18.297 10.364-27.835 18.064-9.762 7.881-16.898 17.217-23.493 30.735l-5.04 10.329-.436 13.682c-.634 19.85 1.46 27.568 11.518 42.46 10.575 15.656 27.365 25.975 57.786 35.513 36.08 11.313 80.455 18.204 117 18.169 48.544-.047 103.099-12.804 145.589-34.045 23.86-11.928 44.783-25.43 63.433-40.936 18.272-15.191 24.426-19.046 33.575-21.035 5.307-1.153 5.918-1.071 11.819 1.577 11.011 4.941 19.672 17.71 24.607 36.279 4.212 15.852 3.369 19.146-9.173 35.827-15.912 21.165-39.718 46.245-57.85 60.948-31.884 25.855-65.054 37.37-112.5 39.055-22.441.796-38.072-2.113-45.25-8.423-2.476-2.177-2.188-5.647 1.25-15.066 3.549-9.726 3.639-11.421.972-18.375-2.252-5.875-8.318-11.216-14.756-12.994-4.674-1.291-15.293-.116-20.556 2.273-5.647 2.564-13.304 2.469-19.327-.242-3.683-1.657-6.87-2.192-13.397-2.25-8.357-.073-8.699.018-14.169 3.786-4.793 3.3-5.924 4.712-7.801 9.731-4.691 12.542 1.128 23.162 23.308 42.537C196.013 653.884 203.402 659 206.475 659c1.25 0 4.242-1.091 6.649-2.425 7.635-4.23 10.27-4.202 24.012.255 17.621 5.715 22.866 6.936 39.425 9.178 34.672 4.695 71.624.678 110.547-12.017 31.381-10.235 59.714-27.754 81.951-50.671 20.597-21.227 34.131-39.2 50.691-67.32 7.849-13.328 27.417-50.619 35.172-67.027 2.983-6.31 9.62-20.159 14.75-30.775S579 418.745 579 418.56c0-.184 2.193-4.998 4.874-10.697C589.027 396.906 597 378.487 597 377.54c0-.309.856-2.469 1.903-4.801 1.047-2.331 4.45-10.089 7.563-17.239 16.13-37.052 27.829-45.668 59.869-44.09l11.835.582 10.165-3.945c13.42-5.209 18.549-6.387 25.348-5.823 4.752.394 6.094.962 8.423 3.569 5.07 5.674 4.98 4.873 8.524 75.73 2.353 47.046 1.005 66.545-5.279 76.359-3.052 4.766-10.222 10.045-19.292 14.204-14.223 6.521-15.367 7.24-16.364 10.282-1.572 4.795.577 9.855 5.317 12.518 8.378 4.709 17.36 5.275 64.988 4.092 52.676-1.309 63.896-2.133 68.598-5.038 3.373-2.085 3.402-2.166 3.402-9.499 0-6.57-.251-7.557-2.25-8.852-3.02-1.956-11.509-4.974-21.25-7.554-15.577-4.127-25.003-10.219-29.524-19.082-3.181-6.236-4.257-18.223-3.54-39.453.354-10.45 1.09-21.925 1.636-25.5 1.67-10.922 7.543-31.006 12.444-42.549 14.602-34.396 27.834-54.226 56.304-84.382 18.41-19.499 27.326-26.951 39.985-33.418 16.07-8.21 39.099-13.576 58.502-13.631 9.259-.027 15.214-1.694 18.778-5.259 4.904-4.904 6.131-8.181 5.364-14.322-.915-7.324-6.011-13.229-14.085-16.318-7.336-2.808-21.892-3.868-30.324-2.209-12.62 2.483-38.946 14.239-56.143 25.072-18.041 11.363-41.059 32.114-59.362 53.516-12.564 14.69-17.934 18.049-28.58 17.877-6.788-.109-7.65-.44-25.955-9.952-3.575-1.858-7.656-3.388-9.068-3.401-6.783-.063-14.767 3.891-32.887 16.284-14.209 9.719-27.165 11.818-46.767 7.576-10.278-2.224-13.889-4.383-16.867-10.084-3.252-6.225-1.89-10.935 11.791-40.8 13.266-28.957 18.089-36.902 32.873-54.159 7.693-8.981 10.024-11.03 19.425-17.082 8.155-5.25 18.36-9.141 31-11.82 22.507-4.771 42.669.248 51.842 12.905 4.414 6.09 4.816 7.932 5.557 25.494l.626 14.838 3.629 3.327c2.83 2.593 4.846 3.478 9.145 4.015 9.605 1.2 13.381-.027 19.653-6.39 10.585-10.737 14.722-28.321 10.077-42.826-2.695-8.416-5.426-13.181-12.497-21.808-12.055-14.706-23.63-21.84-43.315-26.698-12.663-3.125-43.774-3.115-59.717.02-34 6.686-56.594 20.872-77.717 48.798-16.06 21.233-30.424 46.264-41.825 72.886-8.061 18.824-14.971 31.566-19.665 36.259-10.532 10.533-21.787 14.651-44.398 16.248-11.508.813-16.416 1.592-20.145 3.196-9.44 4.061-13.047 14.726-7.834 23.161 3.964 6.414 11.508 8.633 29.383 8.642 13.965.007 18.175 1.083 20.749 5.305 4.134 6.78 2.214 14.157-14.363 55.189-15.966 39.521-24.429 58.932-35.811 82.132-7.101 14.475-9.796 18.964-13.362 22.25-6.481 5.974-7.636 5.728-14.848-3.157-11.918-14.682-22.039-34.401-21.929-42.725.066-5.044 2.84-15.506 10.739-40.5 10.332-32.691 12.591-43.328 15.076-71 1.475-16.422 1.554-22.121.586-42-.616-12.65-1.358-29.469-1.648-37.375-.291-7.907-1.159-17.132-1.929-20.5-1.511-6.608-3.607-52.055-3.558-77.125.068-34.166 2.159-49.475 10.57-77.377C498.457 63.866 500 57.289 500 55.508c0-9.178-12.211-14.226-23.5-9.715M272.048 390.565c35.908 3.894 72.205 12.909 108.597 26.971 12.918 4.991 17.65 7.758 22.269 13.019 3.123 3.557 3.295 4.13 2.769 9.227-.696 6.748-3.424 11.014-13.541 21.18-12.78 12.841-30.618 25.757-54.516 39.473-18.566 10.656-27.642 14.846-45.788 21.141-44.2 15.333-83.241 21.554-121.838 19.416-24.685-1.368-55.185-6.289-72.5-11.698-28.57-8.925-43.969-25.889-45.24-49.839-1.44-27.112 14.514-48.942 48.201-65.955 18.443-9.314 31.242-13.661 54.039-18.355 10.66-2.195 41.749-5.869 55-6.5 13.946-.665 48.497.396 62.548 1.92M378.5 82.063c19.099 1.66 31.236 5.224 42.67 12.531 14.885 9.512 21.054 22.199 24.895 51.202 2.63 19.857-2.436 56.954-9.792 71.704-7.709 15.457-27.028 31.921-41.239 35.145-1.394.316-5.574 1.47-9.289 2.564-5.939 1.749-8.837 1.932-24 1.52-18.108-.493-21.506-1.185-37.726-7.685-12.55-5.03-25.104-17.297-32.268-31.531-8.107-16.108-10.726-28.061-10.743-49.039-.017-20.435 3.214-34.453 11.403-49.474C303.306 99.016 327.57 84.675 355 82.009c11.026-1.072 10.524-1.073 23.5.054M1667.8 8.435c-10.592 3.002-26.708 10.775-53.52 25.812-8.129 4.56-16.805 9.372-19.28 10.694-18.147 9.695-23.559 18.575-14.723 24.158 4.461 2.819 13.036 2.026 27.291-2.523 26.955-8.602 39.479-5.93 46.526 9.924 5.746 12.927 10.532 91.986 6.067 100.227-.664 1.225-2.15 2.732-3.303 3.349-2.994 1.603-19.931 1.266-29.358-.583-48.162-9.448-86.527-3.675-120.808 18.179-10.575 6.742-18.722 14.264-27.968 25.825C1461.626 244.874 1453 270.695 1453 300.5c0 50.167 26.951 89.57 72.03 105.31 15.142 5.287 27.603 7.316 44.968 7.322 24.541.008 42.605-2.951 71.002-11.63 6.325-1.934 14.333-4.202 17.796-5.041 11.755-2.849 13.406-.451 21.023 30.539 2.772 11.275 6.403 24.195 8.071 28.711 3.448 9.34 13.059 28.065 17.087 33.289 5.36 6.952 6.294 10.586 3.452 13.429-2.235 2.234-6.089 1.953-13.489-.986-9.975-3.961-32.773-9.112-50.749-11.467-27.704-3.629-61.626-2.203-106.563 4.48-20.628 3.067-32.91-.621-42.059-12.629-5.287-6.939-7.423-11.338-20.068-41.327-4.175-9.9-8.451-20.025-9.503-22.5-1.856-4.363-5.108-12.484-11.215-28-1.624-4.125-3.562-9.3-4.308-11.5-.745-2.2-2.766-7.375-4.49-11.5-4.526-10.831-20.991-59.04-20.981-61.434.006-1.251-4.705-16.93-6.179-20.566-.557-1.375-4.14-12.625-7.962-25-6.071-19.66-12.495-37.044-16.074-43.5-3.676-6.633-14.119-17.436-20.43-21.135-5.802-3.401-17.352-5.675-25.52-5.026-12.924 1.028-29.075 8.738-58.667 28.007-21.002 13.676-18.762 12.756-23.15 9.512-2.88-2.129-4.286-4.748-5.488-10.221-.346-1.575-2.738-6.389-5.317-10.698-4.95-8.275-9.465-11.939-14.709-11.939-10.978 0-43.236 15.31-62.716 29.765-6.596 4.895-10.792 11.313-10.792 16.508 0 10.098 4.847 12.694 25.448 13.627 12.172.551 14.557.94 17.708 2.888 7.192 4.444 7.148 4.046 6.91 63.026-.235 58.035-.341 59.094-6.678 66.867-3.92 4.808-7.281 6.938-23.948 15.179-16.004 7.913-20.73 12.866-28.34 29.696-6.533 14.451-9.169 18.441-16.931 25.627-7.202 6.668-21.533 13.978-31.814 16.229-15.302 3.35-41.49 2.919-58.203-.957-11.665-2.705-27.062-11.118-37.286-20.373-13.816-12.506-20.304-26.628-21.712-47.257-1.902-27.873 2.097-49.625 12.506-68.016 7.105-12.555 11.548-17.483 22.169-24.587 16.152-10.804 28.957-13.894 53.489-12.908 15.604.627 19.639 1.444 30.131 6.108 11.581 5.147 16.551 11.174 16.551 20.07 0 8.441-3.457 13.618-12.017 17.995-9.24 4.726-11.562 4.976-46.483 4.995-31.787.017-33.174.098-37.723 2.2-11.204 5.175-11.948 18.974-1.442 26.726 2.791 2.06 3.527 2.088 48 1.818 53.002-.321 69.904-1.192 81.665-4.207 18.14-4.651 26.354-12.065 29.036-26.207 2.537-13.377-9.082-36.148-27.965-54.812-7.686-7.597-9.629-8.9-23.071-15.474-4.125-2.017-8.175-4.017-9-4.442-2.575-1.33-23.16-6.92-30.5-8.283-4.187-.778-14.233-1.277-25-1.243-24.4.077-36.274 2.659-59.316 12.898-12.168 5.407-12.924 5.857-24.937 14.836-18.158 13.571-32.422 33.242-40.398 55.708-1.747 4.921-3.666 13.15-6.998 30-.648 3.281-.867 10.946-.541 19 .488 12.063.935 14.665 4.206 24.447 6.834 20.442 15.913 35.688 29.129 48.916 9.452 9.461 16.593 14.471 28.732 20.159 18.732 8.777 39.153 14.171 62.623 16.543 25.997 2.626 51.913-2.4 77.5-15.03 11.534-5.693 15.482-8.25 22.408-14.511 12.242-11.067 19.008-20.665 24.032-34.092 1.183-3.164 3.039-6.998 4.123-8.52 3.416-4.797 6.928-5.278 33.919-4.646 28.939.678 79.974-.641 85.152-2.201 8.35-2.516 11.325-8.099 8.667-16.261-1.173-3.603-2.166-4.673-6.089-6.568-2.579-1.245-10.353-3.39-17.276-4.768-18.886-3.758-24.93-6.981-28.805-15.36-1.951-4.219-2.16-6.635-2.469-28.608-.54-38.351 1.971-53.435 12.127-72.862 5.85-11.19 10.016-16.321 19.151-23.59 9.203-7.323 16.317-10.307 25.899-10.861 10.247-.594 17.14 1.03 24.462 5.763 8.018 5.182 13.005 12.476 19.058 27.878 2.739 6.969 8.424 20.547 12.634 30.172 4.209 9.625 11.026 25.984 15.148 36.353s9.749 23.644 12.506 29.5 7.705 17.397 10.998 25.647 8.154 19.95 10.803 26c4.753 10.853 7.744 17.895 16.348 38.5 4.829 11.562 7.977 23.085 7.977 29.196 0 8.855-5.316 11.933-32.345 18.729-18.346 4.613-36.217 10.314-68.428 21.83-32.33 11.558-68.301 20.336-93.138 22.728-12.394 1.193-26.702-3.007-28.011-8.222-.349-1.388.326-4.451 1.662-7.548 1.237-2.867 3.305-7.688 4.594-10.713 3.923-9.2 2.956-15.283-3.388-21.313-2.328-2.212-4.503-3.041-10.195-3.886-6.617-.982-8.19-.838-18.38 1.685l-11.144 2.759-8.302-2.623c-9.433-2.979-16.827-3.323-23.27-1.081-5.868 2.042-8.549 4.406-10.92 9.63-4.963 10.937-1.23 20.45 14.01 35.701 12.523 12.531 27.228 24.128 30.595 24.128 1.33 0 4.809-1.35 7.733-3 6.576-3.711 8.743-3.724 21.761-.133 18.255 5.037 25.944 6.404 35.854 6.375 22.138-.063 69.036-9.206 111.039-21.646 7.975-2.362 23.05-6.664 33.5-9.559l27.5-7.619c11.201-3.103 19.796-4.401 29.201-4.41 19.944-.02 30.165 5.718 48.751 27.368 18.105 21.091 55.572 48.037 88.548 63.683 36.333 17.24 62.623 23.941 93.923 23.941 40.085 0 66.913-11.188 82.232-34.295 10.691-16.124 12.181-28.732 5.639-47.705-2.453-7.113-9.92-21.761-12.744-24.999-2.114-2.424-4.55-7.739-4.55-9.928 0-1.115 1.159-2.786 2.576-3.715 2.454-1.608 3.008-1.564 11.75.919 21.861 6.212 28.752 7.195 50.174 7.164 25.253-.038 36.534-2.154 58.664-11.006 26.889-10.755 46.203-25.23 61.294-45.935 3.207-4.4 12.915-15.228 21.574-24.063 18.786-19.165 20.968-22.699 20.968-33.951v-7.581l-4.85-4.851c-7.719-7.718-17.135-8.85-33.154-3.984l-7.202 2.187-7.647-2.047c-16.23-4.345-23.257-3.92-31.814 1.925-7.554 5.161-9.249 16.14-4.139 26.817 1.376 2.875 7.075 9.43 15.491 17.819 12.345 12.303 13.315 13.542 13.308 17-.008 4.56-1.863 7.41-8.993 13.811-18.319 16.448-40.904 25.376-69.5 27.475-14.672 1.078-35.786.547-48.5-1.218-18.359-2.549-36.628-11.026-51.378-23.839-5.06-4.396-14.905-17.882-20.24-27.726-4.837-8.924-12.862-35.491-15.473-51.224-.507-3.052-1.373-22.875-1.925-44.05s-1.443-46.15-1.98-55.5c-.538-9.35-1.023-28.7-1.078-43s-.751-39.725-1.546-56.5c-2.301-48.581-2.426-52.192-3.406-98.5-1.513-71.432-4.614-91.272-15.695-100.429-8.083-6.68-17.068-9.02-25.479-6.636m-51.998 202.987c22.622 6.243 35.864 15.365 42.937 29.578 5.964 11.984 6.529 16.272 5.986 45.435-.428 22.944-.788 27.469-3.007 37.789-5.193 24.147-16.751 40.285-35.38 49.399-22.507 11.011-68.159 10.403-88.987-1.187-16.512-9.187-26.151-21.464-32.749-41.709-5.586-17.137-6.04-40.701-1.158-60.025 4.234-16.758 13.484-34.69 21.399-41.482 10.962-9.409 28.616-16.654 49.157-20.175 10.031-1.72 31.351-.507 41.802 2.377m27.698 313.711c31.011 2.936 49.814 9.504 68.331 23.87 18.716 14.519 25.007 23.854 25.918 38.455.626 10.032-.882 17.045-4.839 22.508-10.672 14.732-43.502 19.917-75.41 11.909-36.715-9.214-74.892-31.155-102.433-58.87-10.282-10.348-11.869-12.438-15.77-20.782-6.922-14.804-6.235-15.192 32.203-18.208 12.433-.975 57.232-.28 72 1.118"/><path fill="#000000" stroke="#000000" d="M888 375.863c-6.225 2.448-22.324 11.867-33.858 19.811a2413 2413 0 0 1-15.252 10.422c-12.79 8.623-16.119 17.675-8.569 23.302 2.492 1.858 4.595 2.16 18.08 2.602 14.721.482 15.387.597 18.84 3.233 2.213 1.689 4.283 4.554 5.42 7.5 1.703 4.415 1.838 8.683 1.823 57.767-.02 67.607-.477 70.229-13.627 78.23-8.997 5.473-13.515 9.808-15.418 14.792-2.509 6.569-1.341 12.307 3.526 17.323 3.293 3.393 5.02 4.246 11.699 5.782 11.282 2.593 75.231 2.643 85.626.066 9.925-2.46 12.574-4.132 14.909-9.411 1.803-4.074 1.882-5.006.726-8.51-1.557-4.718-6.896-9.408-12.403-10.897-6.06-1.638-16.684-7.632-19.84-11.194-1.55-1.75-4.025-5.656-5.5-8.681-3.132-6.424-3.005-.29-2.196-106 .45-58.703.353-63.935-1.28-69.26-2.204-7.18-6.072-12.873-11-16.188-3.157-2.123-4.922-2.544-10.5-2.505-3.946.027-8.558.775-11.206 1.816M859.881 281.943c-9.666 1.297-17.404 10.241-17.352 20.057.024 4.583.678 6.583 3.923 12 6.102 10.184 29.733 32.266 39.504 36.915 2.831 1.347 3.229 1.239 8.259-2.24 17.147-11.858 33.723-28.048 37.548-36.675 4.333-9.774 1.608-20.703-6.598-26.459-3.815-2.676-5.316-3.082-12.511-3.384-6.382-.267-9.483.117-14.13 1.75-7.375 2.592-11.878 2.636-19.27.186-6.922-2.293-13.152-2.985-19.373-2.15"/></svg>